<?xml version="1.0" encoding="UTF-8" standalone="no"?>
<!-- Created with Inkscape (http://www.inkscape.org/) -->

<svg
   version="1.1"
   id="svg2"
   xml:space="preserve"
   width="559.22668"
   height="784.14667"
   viewBox="0 0 559.22668 784.14667"
   sodipodi:docname="Composite_hoch_WSGermany_cws_XL_white.eps"
   xmlns:inkscape="http://www.inkscape.org/namespaces/inkscape"
   xmlns:sodipodi="http://sodipodi.sourceforge.net/DTD/sodipodi-0.dtd"
   xmlns="http://www.w3.org/2000/svg"
   xmlns:svg="http://www.w3.org/2000/svg"><defs
     id="defs6"><clipPath
       clipPathUnits="userSpaceOnUse"
       id="clipPath82"><path
         d="M 642.105,5435.64 V 2666.7 H 3720.75 v 2768.94 z"
         id="path80" /></clipPath><clipPath
       clipPathUnits="userSpaceOnUse"
       id="clipPath102"><path
         d="M 642.105,5435.64 V 2666.7 H 3720.75 v 2768.94 z"
         id="path100" /></clipPath><clipPath
       clipPathUnits="userSpaceOnUse"
       id="clipPath118"><path
         d="M 642.105,5435.64 V 2666.7 H 3720.75 v 2768.94 z"
         id="path116" /></clipPath><clipPath
       clipPathUnits="userSpaceOnUse"
       id="clipPath140"><path
         d="M 642.105,5435.64 V 2666.7 H 3720.75 v 2768.94 z"
         id="path138" /></clipPath></defs><sodipodi:namedview
     id="namedview4"
     pagecolor="#ffffff"
     bordercolor="#666666"
     borderopacity="1.0"
     inkscape:pageshadow="2"
     inkscape:pageopacity="0.0"
     inkscape:pagecheckerboard="0" /><g
     id="g8"
     inkscape:groupmode="layer"
     inkscape:label="ink_ext_XXXXXX"
     transform="matrix(1.3333333,0,0,-1.3333333,0,784.14667)"><g
       id="g10"
       transform="scale(0.1)"><path
         d="m 739.391,1713.94 v -60.37 c -2.071,-0.84 -4.614,-1.7 -7.696,-2.58 -3.086,-0.9 -6.5,-1.76 -10.269,-2.59 -3.766,-0.84 -7.836,-1.46 -12.242,-1.94 -4.356,-0.49 -8.868,-0.71 -13.539,-0.71 -8.086,0 -15.645,1.34 -22.696,4 -7.039,2.63 -13.246,6.86 -18.574,12.54 -5.352,5.68 -9.555,12.99 -12.641,21.83 -3.078,8.92 -4.613,19.69 -4.613,32.29 0,12.83 1.535,23.82 4.613,32.86 3.086,9.04 7.184,16.44 12.325,22.19 5.152,5.71 11.011,9.91 17.66,12.61 6.636,2.69 13.511,3.99 20.648,3.99 6.16,0 11.574,-0.59 16.227,-1.81 4.652,-1.26 8.75,-3.06 12.324,-5.35 3.547,-2.33 6.637,-5.13 9.234,-8.43 2.582,-3.29 4.938,-6.97 6.981,-11.08 l -13.117,-8.04 c -3.172,6.19 -7.184,11.03 -12.047,14.71 -4.848,3.62 -11.403,5.46 -19.602,5.46 -4.808,0 -9.488,-1.11 -14.074,-3.34 -4.59,-2.19 -8.617,-5.61 -12.121,-10.27 -3.5,-4.63 -6.297,-10.61 -8.414,-17.84 -2.149,-7.25 -3.172,-15.89 -3.172,-25.89 0,-8.86 1.07,-16.84 3.269,-23.8 2.208,-7 5.165,-12.88 8.958,-17.67 3.73,-4.77 8.156,-8.39 13.109,-10.93 5.023,-2.45 10.297,-3.65 15.922,-3.65 6.16,0 11.5,0.37 16.027,1.14 4.527,0.75 8.215,1.58 11.09,2.51 v 35.78 h -22.59 v 14.38 h 39.02"
         style="fill:#ffffff;fill-opacity:1;fill-rule:nonzero;stroke:none"
         id="path12" /><path
         d="m 838.141,1711.07 c -0.129,4.16 -0.965,7.81 -2.453,10.95 -1.532,3.22 -3.434,5.85 -5.754,7.94 -2.332,2.09 -4.996,3.63 -8.039,4.65 -2.985,0.96 -5.985,1.53 -9.004,1.53 -6.567,0 -12.207,-1.92 -16.942,-5.8 -4.726,-3.82 -7.969,-10.26 -9.781,-19.27 z m -53.399,-12.76 c 0,-12.42 2.809,-22.14 8.438,-29.04 5.593,-6.93 13.754,-10.38 24.422,-10.38 6.16,0 11.386,1.46 15.613,4.54 4.242,3 7.668,6.68 10.273,11.09 l 10.469,-7 c -3.57,-6.19 -8.18,-11.29 -13.867,-15.33 -5.68,-4 -13.317,-6.06 -22.887,-6.06 -7.402,0 -14.031,1.16 -19.933,3.41 -5.887,2.26 -10.93,5.53 -15.102,9.85 -4.164,4.35 -7.398,9.68 -9.648,16.16 -2.227,6.45 -3.368,13.84 -3.368,22.36 0,7.79 1.039,14.84 3.184,21.06 2.109,6.24 5.047,11.59 8.812,16.06 3.766,4.39 8.375,7.82 13.778,10.22 5.379,2.43 11.398,3.61 17.965,3.61 7.257,0 13.578,-1.26 18.976,-3.7 5.41,-2.46 9.903,-5.96 13.473,-10.39 3.562,-4.45 6.234,-9.76 8,-15.98 1.769,-6.26 2.672,-13.09 2.672,-20.48 h -71.27"
         style="fill:#ffffff;fill-opacity:1;fill-rule:nonzero;stroke:none"
         id="path14" /><path
         d="m 889.902,1648.4 v 85.01 h -14.371 v 12.79 h 14.586 v 7.17 c 0,6.36 0.699,11.77 2.168,16.17 1.445,4.38 3.442,7.93 6.051,10.76 2.602,2.69 5.672,4.69 9.234,5.91 3.575,1.26 7.543,1.85 11.942,1.85 5.176,0 9.59,-0.45 13.222,-1.49 3.633,-1.1 6.821,-2.35 9.547,-3.86 l -4.691,-12.09 c -2.371,1.09 -4.922,2.04 -7.727,3.01 -2.812,0.83 -6.015,1.3 -9.55,1.3 -2.333,0 -4.395,-0.3 -6.161,-0.83 -1.777,-0.54 -3.297,-1.63 -4.539,-3.21 -1.215,-1.55 -2.16,-3.79 -2.851,-6.62 -0.696,-2.82 -1.035,-6.5 -1.035,-11.05 v -7.02 h 24.644 l -2.246,-12.79 h -22.176 v -85.01 h -16.047"
         style="fill:#ffffff;fill-opacity:1;fill-rule:nonzero;stroke:none"
         id="path16" /><path
         d="m 1013.82,1769.6 c -2.76,0 -5.1,1.13 -7.09,3.37 -1.99,2.25 -2.95,4.98 -2.95,8.09 0,3.16 0.96,5.87 2.95,8.04 1.99,2.21 4.33,3.3 7.09,3.3 2.87,0 5.32,-1.09 7.27,-3.3 2,-2.17 2.99,-4.88 2.99,-8.04 0,-3.11 -0.99,-5.84 -2.99,-8.09 -1.95,-2.24 -4.4,-3.37 -7.27,-3.37 z m -35.347,0 c -2.856,0 -5.285,1.13 -7.262,3.37 -2,2.25 -2.992,4.98 -2.992,8.09 0,3.16 0.992,5.87 2.992,8.04 1.977,2.21 4.406,3.3 7.262,3.3 2.761,0 5.125,-1.09 7.093,-3.3 2.008,-2.17 3,-4.88 3,-8.04 0,-3.11 -0.992,-5.84 -3,-8.09 -1.968,-2.24 -4.332,-3.37 -7.093,-3.37 z m 47.057,-72.02 c 0,4.81 -0.6,9.54 -1.85,14.14 -1.23,4.66 -3.1,8.79 -5.67,12.42 -2.53,3.63 -5.67,6.51 -9.44,8.69 -3.77,2.2 -8.18,3.31 -13.23,3.31 -5.09,0 -9.488,-1.11 -13.266,-3.31 -3.761,-2.18 -6.855,-5.06 -9.336,-8.69 -2.453,-3.63 -4.281,-7.73 -5.55,-12.29 -1.235,-4.61 -1.856,-9.22 -1.856,-14.05 0,-4.89 0.621,-9.66 1.856,-14.35 1.269,-4.61 3.125,-8.74 5.664,-12.36 2.527,-3.63 5.664,-6.53 9.457,-8.82 3.761,-2.24 8.113,-3.38 13.031,-3.38 5.05,0 9.46,1.14 13.23,3.38 3.77,2.29 6.91,5.19 9.44,8.82 2.57,3.62 4.44,7.75 5.67,12.36 1.25,4.69 1.85,9.4 1.85,14.13 z m 15.42,-0.06 c 0,-6.44 -0.97,-12.78 -2.88,-18.94 -1.93,-6.11 -4.77,-11.63 -8.54,-16.4 -3.78,-4.78 -8.53,-8.63 -14.26,-11.62 -5.77,-2.92 -12.39,-4.43 -19.93,-4.43 -7.512,0 -14.156,1.51 -19.817,4.43 -5.66,2.99 -10.449,6.87 -14.277,11.73 -3.84,4.86 -6.73,10.38 -8.625,16.64 -1.91,6.2 -2.879,12.58 -2.879,18.98 0,6.45 0.903,12.71 2.774,18.79 1.839,6.05 4.691,11.54 8.519,16.34 3.844,4.75 8.57,8.64 14.289,11.48 5.672,2.92 12.352,4.34 20.016,4.34 7.54,0 14.16,-1.48 19.93,-4.39 5.73,-2.94 10.48,-6.83 14.26,-11.64 3.77,-4.8 6.61,-10.31 8.54,-16.42 1.91,-6.18 2.88,-12.5 2.88,-18.89"
         style="fill:#ffffff;fill-opacity:1;fill-rule:nonzero;stroke:none"
         id="path18" /><path
         d="m 1072.67,1648.4 v 96.76 l 14.15,2.44 1.42,-9.84 c 2.62,2.78 5.98,5.25 10.09,7.6 4.09,2.37 8.29,3.5 12.52,3.5 3.01,0 5.79,-0.22 8.3,-0.6 2.53,-0.43 4.49,-0.82 5.88,-1.26 l -2.88,-14.58 c -3.71,1.47 -8,2.28 -12.95,2.28 -3.98,0 -7.75,-1.13 -11.38,-3.33 -3.65,-2.17 -6.76,-4.43 -9.36,-6.75 v -76.22 h -15.79"
         style="fill:#ffffff;fill-opacity:1;fill-rule:nonzero;stroke:none"
         id="path20" /><path
         d="m 1210.07,1731.37 c -0.81,0.57 -1.92,1.15 -3.37,1.67 -1.43,0.53 -3.06,1.07 -4.83,1.55 -1.78,0.45 -3.62,0.85 -5.55,1.08 -1.9,0.31 -3.76,0.47 -5.53,0.47 -5.77,0 -10.76,-1.11 -14.99,-3.31 -4.26,-2.18 -7.78,-5.06 -10.59,-8.69 -2.8,-3.66 -4.89,-7.83 -6.26,-12.44 -1.38,-4.69 -2.05,-9.4 -2.05,-14.18 0,-5.49 0.61,-10.61 1.84,-15.32 1.23,-4.69 3.12,-8.78 5.68,-12.21 2.49,-3.43 5.66,-6.11 9.42,-8.16 3.78,-1.94 8.26,-2.94 13.45,-2.94 4.11,0 8.16,0.91 12.14,2.55 3.93,1.72 7.51,4.56 10.64,8.55 z m 1.25,-82.97 -1.25,8.04 c -3.55,-3.71 -7.41,-6.35 -11.56,-7.91 -4.21,-1.59 -8.75,-2.4 -13.69,-2.4 -6.98,0 -13.18,1.38 -18.58,4.05 -5.4,2.66 -9.94,6.34 -13.66,10.94 -3.71,4.69 -6.51,10.17 -8.42,16.57 -1.91,6.34 -2.88,13.24 -2.88,20.62 0,6.32 0.99,12.52 2.99,18.59 2,6.07 4.95,11.49 8.85,16.24 3.88,4.71 8.78,8.54 14.66,11.38 5.9,2.92 12.71,4.34 20.54,4.34 4.92,0 9.19,-0.4 12.74,-1.12 3.52,-0.78 6.56,-1.62 9.01,-2.58 v 40.22 l 15.83,2.68 V 1648.4 h -14.58"
         style="fill:#ffffff;fill-opacity:1;fill-rule:nonzero;stroke:none"
         id="path22" /><path
         d="m 1326.65,1711.07 c -0.11,4.16 -0.98,7.81 -2.44,10.95 -1.53,3.22 -3.43,5.85 -5.75,7.94 -2.36,2.09 -5.01,3.63 -8.05,4.65 -3,0.96 -6,1.53 -9,1.53 -6.56,0 -12.21,-1.92 -16.94,-5.8 -4.73,-3.82 -7.98,-10.26 -9.77,-19.27 z m -53.4,-12.76 c 0,-12.42 2.82,-22.14 8.46,-29.04 5.59,-6.93 13.74,-10.38 24.42,-10.38 6.15,0 11.38,1.46 15.59,4.54 4.26,3 7.66,6.68 10.29,11.09 l 10.46,-7 c -3.55,-6.19 -8.17,-11.29 -13.86,-15.33 -5.67,-4 -13.32,-6.06 -22.91,-6.06 -7.38,0 -14.01,1.16 -19.89,3.41 -5.91,2.26 -10.94,5.53 -15.12,9.85 -4.16,4.35 -7.4,9.68 -9.65,16.16 -2.22,6.45 -3.38,13.84 -3.38,22.36 0,7.79 1.05,14.84 3.2,21.06 2.11,6.24 5.06,11.59 8.81,16.06 3.75,4.39 8.38,7.82 13.78,10.22 5.38,2.43 11.4,3.61 17.96,3.61 7.27,0 13.59,-1.26 18.98,-3.7 5.42,-2.46 9.88,-5.96 13.46,-10.39 3.57,-4.45 6.25,-9.76 8.02,-15.98 1.78,-6.26 2.65,-13.09 2.65,-20.48 h -71.27"
         style="fill:#ffffff;fill-opacity:1;fill-rule:nonzero;stroke:none"
         id="path24" /><path
         d="m 1375.2,1648.4 v 96.76 l 14.16,2.44 1.44,-9.84 c 2.6,2.78 5.97,5.25 10.06,7.6 4.11,2.37 8.28,3.5 12.55,3.5 2.99,0 5.77,-0.22 8.31,-0.6 2.54,-0.43 4.46,-0.82 5.82,-1.26 l -2.87,-14.58 c -3.69,1.47 -7.96,2.28 -12.91,2.28 -3.99,0 -7.78,-1.13 -11.4,-3.33 -3.64,-2.17 -6.76,-4.43 -9.35,-6.75 v -76.22 h -15.81"
         style="fill:#ffffff;fill-opacity:1;fill-rule:nonzero;stroke:none"
         id="path26" /><path
         d="m 1478.62,1733.41 v -62.56 c 0,-4.85 0.95,-8 2.76,-9.58 1.84,-1.62 4.2,-2.38 7.06,-2.38 2.61,0 5.11,0.54 7.41,1.62 2.34,1.17 4.43,2.42 6.36,3.92 l 6.16,-10.66 c -3.15,-2.34 -6.24,-4.18 -9.36,-5.57 -3.07,-1.4 -7.43,-2.07 -12.98,-2.07 -7.41,0 -13.1,1.9 -17.06,5.67 -3.99,3.78 -5.99,9.53 -5.99,17.4 v 64.21 h -16.83 v 12.79 h 16.83 v 25.45 l 15.81,2.88 v -28.33 h 26.7 l -2.25,-12.79 h -24.62"
         style="fill:#ffffff;fill-opacity:1;fill-rule:nonzero;stroke:none"
         id="path28" /><path
         d="m 1597.71,1648.4 -36.73,97.97 h 17.03 l 29.18,-79.88 29.36,79.88 h 16 l -36.73,-97.97 h -18.11"
         style="fill:#ffffff;fill-opacity:1;fill-rule:nonzero;stroke:none"
         id="path30" /><path
         d="m 1744.47,1697.58 c 0,4.81 -0.63,9.54 -1.84,14.14 -1.26,4.66 -3.16,8.79 -5.7,12.42 -2.5,3.63 -5.66,6.51 -9.42,8.69 -3.78,2.2 -8.18,3.31 -13.26,3.31 -5.06,0 -9.48,-1.11 -13.22,-3.31 -3.81,-2.18 -6.85,-5.06 -9.34,-8.69 -2.48,-3.63 -4.32,-7.73 -5.58,-12.29 -1.22,-4.61 -1.84,-9.22 -1.84,-14.05 0,-4.89 0.62,-9.66 1.84,-14.35 1.26,-4.61 3.14,-8.74 5.66,-12.36 2.55,-3.63 5.69,-6.53 9.45,-8.82 3.77,-2.24 8.11,-3.38 13.03,-3.38 5.08,0 9.48,1.14 13.26,3.38 3.76,2.29 6.92,5.19 9.42,8.82 2.54,3.62 4.44,7.75 5.7,12.36 1.21,4.69 1.84,9.4 1.84,14.13 z m 15.41,-0.06 c 0,-6.44 -0.98,-12.78 -2.87,-18.94 -1.96,-6.11 -4.8,-11.63 -8.53,-16.4 -3.8,-4.78 -8.56,-8.63 -14.31,-11.62 -5.76,-2.92 -12.35,-4.43 -19.92,-4.43 -7.53,0 -14.13,1.51 -19.8,4.43 -5.66,2.99 -10.47,6.87 -14.26,11.73 -3.85,4.86 -6.72,10.38 -8.63,16.64 -1.93,6.2 -2.92,12.58 -2.92,18.98 0,6.45 0.93,12.71 2.79,18.79 1.84,6.05 4.71,11.54 8.52,16.34 3.86,4.75 8.61,8.64 14.28,11.48 5.7,2.92 12.37,4.34 20.02,4.34 7.57,0 14.16,-1.48 19.92,-4.39 5.75,-2.94 10.51,-6.83 14.31,-11.64 3.73,-4.8 6.57,-10.31 8.53,-16.42 1.89,-6.18 2.87,-12.5 2.87,-18.89"
         style="fill:#ffffff;fill-opacity:1;fill-rule:nonzero;stroke:none"
         id="path32" /><path
         d="m 1805.94,1747.6 1.23,-8.99 c 3.98,3 8.67,5.44 14.09,7.35 5.39,1.92 11.07,2.9 16.98,2.9 13.33,0 22.83,-3.33 28.41,-9.98 5.5,-6.63 8.32,-16.45 8.32,-29.49 v -60.99 h -15.84 v 61.42 c 0,8.23 -1.82,14.67 -5.5,19.33 -3.73,4.64 -9.76,6.99 -18.13,6.99 -5.16,0 -10.28,-1.11 -15.28,-3.44 -5.02,-2.23 -9.25,-4.75 -12.85,-7.46 v -76.84 h -15.79 v 96.76 l 14.36,2.44"
         style="fill:#ffffff;fill-opacity:1;fill-rule:nonzero;stroke:none"
         id="path34" /><path
         d="M 3552.29,2189.42 H 639.602 v 21.26 H 3552.29 v -21.26"
         style="fill:#ffffff;fill-opacity:1;fill-rule:nonzero;stroke:none"
         id="path36" /><path
         d="m 1538.56,869.711 c 3.2,0 5.94,-0.602 7.89,-2.293 1.95,-1.688 3.07,-4.066 3.07,-6.93 0,-2.847 -1.16,-5.359 -3.03,-7.047 -1.89,-1.691 -4.13,-2.363 -7.93,-2.363 v 0 0 H 1372.23 V 819.32 h 166.39 c 24.86,0 41.43,15.192 41.43,40.039 0,24.86 -17.27,40.051 -42.12,40.051 h -129.11 v 0 c -3.08,0 -5.74,0.61 -7.62,2.231 -1.86,1.621 -2.85,4 -2.85,6.738 0,2.75 1.02,5.062 2.82,6.68 1.81,1.632 3.99,2.3 7.65,2.3 v 0 h 165.01 v 31.77 h -165.01 c -25.55,0 -42.81,-15.199 -42.81,-40.051 0,-24.859 17.26,-39.359 42.81,-39.359 z m -212.28,79.527 -82.86,-86.988 v 86.988 h -35.21 l -80.78,-86.988 v 86.988 h -35.21 V 819.441 h 35.21 l 80.78,85.61 v -85.61 h 37.28 l 126.36,129.797 z M 918.094,819.441 c -22.258,0 -38.465,6.25 -50.434,17.989 -11.965,11.742 -18.48,27.121 -18.48,46.91 0,18.879 6.328,33.719 18.992,45.918 12.652,12.203 29.875,18.98 49.672,18.98 h 154.346 v -31.75 H 922.367 c -13.5,0 -21.554,-2.488 -28.23,-8.48 -6.676,-5.988 -10.434,-14.539 -10.434,-24.668 0,-10.129 3.641,-18.93 10.547,-24.922 6.902,-5.988 15.242,-8.219 30.188,-8.219 H 1072.19 V 819.441 H 918.094"
         style="fill:#ffffff;fill-opacity:1;fill-rule:nonzero;stroke:none"
         id="path38" /><path
         d="M 2911.7,730.059 H 1791.24 V 1038.5 H 2911.7 Z M 654.395,1038.5 H 1774.85 V 730.059 H 654.395 Z m -16.375,16.38 V 713.691 H 2928.08 V 1054.88 H 638.02"
         style="fill:#ffffff;fill-opacity:1;fill-rule:nonzero;stroke:none"
         id="path40" /><path
         d="m 968.617,3014.11 h -105.39 v 39.04 H 1013.51 V 2827.4 c -46.19,-20.17 -91.076,-27.98 -141.17,-27.98 -143.125,0 -229.004,94.34 -229.004,234.86 0,137.91 88.477,234.86 229.004,234.86 34.476,0 91.078,-5.86 121.656,-21.48 l -5.207,-41.63 c -35.133,19.51 -76.766,24.07 -116.449,24.07 -117.754,0 -184.113,-83.28 -184.113,-195.82 0,-114.51 64.406,-195.83 184.113,-195.83 27.973,0 74.812,3.26 96.277,16.26 v 159.4 0"
         style="fill:#ffffff;fill-opacity:1;fill-rule:nonzero;stroke:none"
         id="path42" /><path
         d="m 1312.76,2817.64 c -28.62,-11.71 -65.7,-18.22 -96.27,-18.22 -109.95,0 -150.94,74.16 -150.94,173.7 0,101.5 55.95,173.7 139.87,173.7 93.68,0 132.07,-75.46 132.07,-164.59 v -20.81 h -227.05 c 0,-70.27 37.73,-126.86 109.3,-126.86 29.93,0 73.51,12.35 93.02,24.71 v -41.63 z m -20.16,178.9 c 0,57.91 -23.42,115.16 -84.57,115.16 -60.5,0 -97.59,-60.51 -97.59,-115.16 h 182.16 v 0"
         style="fill:#ffffff;fill-opacity:1;fill-rule:nonzero;stroke:none"
         id="path44" /><path
         d="m 1383.04,3064.85 c 0,36.43 0,50.1 -2.61,74.17 h 40.99 v -63.76 h 1.31 c 14.96,37.09 42.93,71.56 85.21,71.56 9.76,0 21.47,-1.94 28.62,-3.89 v -42.94 c -8.45,2.59 -19.51,3.9 -29.92,3.9 -65.05,0 -82.62,-72.87 -82.62,-132.71 v -163.95 h -40.98 v 257.62 0"
         style="fill:#ffffff;fill-opacity:1;fill-rule:nonzero;stroke:none"
         id="path46" /><path
         d="m 1967.89,2807.23 v 220.54 c 0,46.85 -17.56,83.93 -70.25,83.93 -44.9,0 -89.13,-38.38 -89.13,-121.01 v -183.46 h -40.99 v 220.54 c 0,46.85 -17.57,83.93 -70.26,83.93 -44.89,0 -89.13,-38.38 -89.13,-121.01 v -183.46 h -40.99 v 253.72 c 0,25.37 0,51.4 -2.6,78.07 h 39.68 v -55.95 l 1.31,-0.65 c 13.01,22.77 32.52,64.4 103.44,64.4 29.27,0 77.42,-12.35 87.83,-70.25 h 1.3 c 14.96,39.03 53.99,70.25 106.04,70.25 67,0 104.74,-46.83 104.74,-111.24 v -228.35 h -40.99 v 0"
         style="fill:#ffffff;fill-opacity:1;fill-rule:nonzero;stroke:none"
         id="path48" /><path
         d="m 2267.16,2860.58 h -1.31 c -18.21,-39.7 -64.4,-61.16 -105.39,-61.16 -94.33,0 -109.29,63.76 -109.29,93.68 0,111.25 118.4,116.46 204.28,116.46 h 7.8 v 16.91 c 0,56.6 -20.16,85.23 -75.47,85.23 -34.47,0 -67,-7.81 -97.57,-27.33 v 39.69 c 25.37,12.36 68.31,22.76 97.57,22.76 81.98,0 116.46,-37.08 116.46,-123.6 v -146.38 c 0,-26.67 0,-46.84 3.26,-69.61 h -40.34 v 53.35 z m -3.91,113.84 h -11.71 c -70.9,0 -155.48,-7.15 -155.48,-80.02 0,-43.58 31.23,-59.84 68.95,-59.84 96.3,0 98.24,83.91 98.24,119.69 v 20.17 0"
         style="fill:#ffffff;fill-opacity:1;fill-rule:nonzero;stroke:none"
         id="path50" /><path
         d="m 2369.3,3060.95 c 0,25.37 0,51.4 -2.61,78.07 h 39.7 v -59.2 h 1.29 c 13.66,29.92 38.39,67 107.35,67 81.97,0 113.19,-54.65 113.19,-127.51 v -212.08 h -40.98 v 201.67 c 0,62.46 -22.12,102.8 -78.72,102.8 -74.81,0 -98.24,-65.72 -98.24,-121.01 v -183.46 h -40.98 v 253.72 0"
         style="fill:#ffffff;fill-opacity:1;fill-rule:nonzero;stroke:none"
         id="path52" /><path
         d="m 2790.88,2862.53 h 0.64 l 95.64,276.49 h 42.94 l -132.73,-381.23 c -15.6,-45.55 -39.02,-91.09 -85.21,-91.09 -14.97,0 -30.58,1.96 -44.24,5.21 l 3.9,35.13 c 7.81,-2.6 15.61,-5.2 30.57,-5.2 35.14,0 46.85,29.27 59.86,72.21 l 8.45,29.28 -117.75,335.69 h 44.89 l 93.04,-276.49 v 0"
         style="fill:#ffffff;fill-opacity:1;fill-rule:nonzero;stroke:none"
         id="path54" /><path
         d="m 1313.44,3675.18 c -117.53,0 -159.23,-93.48 -159.23,-173.53 0,-80.05 41.7,-173.54 159.23,-173.54 117.53,0 159.24,93.49 159.24,173.54 0,80.05 -41.71,173.53 -159.24,173.53 z m 0,-314.08 c -68.82,0 -115.07,56.48 -115.07,140.55 0,84.07 46.25,140.55 115.07,140.55 68.84,0 115.08,-56.48 115.08,-140.55 0,-84.07 -46.24,-140.55 -115.08,-140.55 v 0"
         style="fill:#ffffff;fill-opacity:1;fill-rule:nonzero;stroke:none"
         id="path56" /><path
         d="m 1561.92,3614.22 c 0,9.06 0,54.4 0,54.4 h -37.45 l 0.03,-331.38 h 40.12 v 163.71 c 0,0.05 -0.07,2.11 -0.07,2.11 0.07,61.06 17.36,134.02 99.71,134.02 l 12.57,-0.55 0.12,1.25 2.03,38.64 -4.69,0.03 c -55.64,0 -93.33,-21.02 -112.37,-62.23 v 0"
         style="fill:#ffffff;fill-opacity:1;fill-rule:nonzero;stroke:none"
         id="path58" /><path
         d="m 2443.71,3604 c -27.64,9.13 -47.84,14.38 -80.87,14.38 -24.26,0 -53.24,-8.49 -53.24,-37.29 0,-53.66 157.03,-19.64 157.03,-141.33 0,-78.52 -72.11,-109.94 -145.57,-109.94 -34.38,0 -69.42,5.89 -102.44,14.39 l 5.37,71.99 c 28.33,-13.74 57.97,-22.26 88.98,-22.26 22.92,0 59.32,8.52 59.32,41.22 0,66.11 -157.05,20.95 -157.05,142.66 0,72.63 65.38,104.7 136.14,104.7 42.46,0 70.1,-6.57 98.4,-12.44 l -6.07,-66.08 v 0"
         style="fill:#ffffff;fill-opacity:1;fill-rule:nonzero;stroke:none"
         id="path60" /><path
         d="m 2864.27,3674.25 h 90.32 v -337.01 h -90.32 v 337.01 0"
         style="fill:#ffffff;fill-opacity:1;fill-rule:nonzero;stroke:none"
         id="path62" /><path
         d="m 3524.82,3604 c -27.65,9.13 -47.87,14.38 -80.88,14.38 -24.27,0 -53.26,-8.49 -53.26,-37.29 0,-53.66 157.04,-19.64 157.04,-141.33 0,-78.52 -72.11,-109.94 -145.56,-109.94 -34.4,0 -69.42,5.89 -102.45,14.39 l 5.38,71.99 c 28.31,-13.74 57.98,-22.26 88.97,-22.26 22.91,0 59.3,8.52 59.3,41.22 0,66.11 -157.03,20.95 -157.03,142.66 0,72.63 65.38,104.7 136.15,104.7 42.45,0 70.08,-6.57 98.39,-12.44 l -6.05,-66.08 v 0"
         style="fill:#ffffff;fill-opacity:1;fill-rule:nonzero;stroke:none"
         id="path64" /><path
         d="m 2687.85,3523.21 127.94,151.04 h -106.47 l -107.84,-134.82 h -1.35 v 316.16 l -90.31,-27.6 v -490.75 h 90.31 v 163.6 h 1.35 l 115.92,-163.6 h 114.57 l -144.12,185.97 v 0"
         style="fill:#ffffff;fill-opacity:1;fill-rule:nonzero;stroke:none"
         id="path66" /><path
         d="m 2094.07,3837.09 -38.47,-11.78 c 0,0 0,-197.51 0,-204.86 -8.34,14 -39.6,56.87 -109.7,56 -115.99,-1.44 -140.33,-95.16 -140.33,-173.53 0,-107.05 53.78,-173.54 140.34,-173.54 51.55,0 86.45,18.99 109.69,59.25 0,-3.46 0,-51.39 0,-51.39 h 40.09 l 0.01,500.34 -1.63,-0.49 z m -141.4,-474.72 c -92.93,0 -102.96,98.28 -102.96,140.55 0,42.25 10.03,140.55 102.96,140.55 71.1,0 102.93,-70.59 102.93,-140.55 0,-69.97 -31.83,-140.55 -102.93,-140.55 v 0"
         style="fill:#ffffff;fill-opacity:1;fill-rule:nonzero;stroke:none"
         id="path68" /><path
         d="m 1759.27,3837.07 -38.47,-11.76 v -488.07 h 40.11 v 500.32 l -1.64,-0.49 v 0"
         style="fill:#ffffff;fill-opacity:1;fill-rule:nonzero;stroke:none"
         id="path70" /><path
         d="m 3012.85,3827.99 v -490.75 h 90.31 v 518.35 l -90.31,-27.6 v 0"
         style="fill:#ffffff;fill-opacity:1;fill-rule:nonzero;stroke:none"
         id="path72" /><path
         d="m 3155.18,3827.99 h -0.01 v -490.75 h 90.33 v 518.35 l -90.32,-27.6 v 0"
         style="fill:#ffffff;fill-opacity:1;fill-rule:nonzero;stroke:none"
         id="path74" /><g
         id="g76"><g
           id="g78"
           clip-path="url(#clipPath82)"><path
             d="m 2961.62,3800.05 c 0,27.78 -22.52,50.29 -50.29,50.29 -27.77,0 -50.29,-22.51 -50.29,-50.29 0,-27.78 22.52,-50.29 50.29,-50.29 27.77,0 50.29,22.51 50.29,50.29 v 0"
             style="fill:#ffffff;fill-opacity:1;fill-rule:nonzero;stroke:none"
             id="path84" /><path
             d="m 685.172,3668.62 h -43.067 l 0.547,-1.67 c 2.051,-6.26 107.918,-325.89 108.922,-328.84 l 0.285,-0.87 h 49.504 c 0,0 93.114,286.84 93.676,288.58 0.934,0 2.125,0 3.063,0 0.562,-1.74 93.679,-288.57 93.679,-288.57 l 49.529,-0.01 112.44,331.38 h -39.99 c 0,0 -94.45,-286.85 -95.02,-288.59 -0.94,0 -2.13,0 -3.08,0 -0.55,1.77 -90.961,288.59 -90.961,288.59 h -49.523 c 0,0 -95.129,-286.86 -95.703,-288.59 -0.93,0 -2.125,0 -3.063,0 -0.551,1.77 -90.305,288.59 -90.305,288.59 h -0.933 v 0"
             style="fill:#ffffff;fill-opacity:1;fill-rule:nonzero;stroke:none"
             id="path86" /></g></g><path
         d="m 2333.98,4646.36 c 0,0 313.16,-71.55 481.35,-243.22 0,0 159.29,-136.02 225.11,-410.15 0,0 1.95,22.77 -1.27,49.05 0,0 10.51,-23.44 17.79,-48.11 0,0 -0.42,17.38 -3.24,29.1 0,0 18.2,-44.05 24.25,-80.84 0,0 -25.44,210.08 -136.49,400.55 0,0 79.93,-32.13 172.06,-375.08 0,0 -40.93,286.65 -160.96,442.38 0,0 -156.77,251.45 -532.44,364.59 0,0 -44.17,-24.11 -35.51,-64.33 0,0 -1.16,-50.02 -50.65,-63.94 v 0"
         style="fill:#ffffff;fill-opacity:1;fill-rule:nonzero;stroke:none"
         id="path88" /><path
         d="m 3088.64,4062.41 c -126.58,618.32 -652.88,721.08 -652.88,721.08"
         style="fill:none;stroke:#ffffff;stroke-width:0.591619;stroke-linecap:round;stroke-linejoin:miter;stroke-miterlimit:4;stroke-dasharray:none;stroke-opacity:1"
         id="path90" /><path
         d="m 2435.76,4783.49 c 0,0 519.29,-155.8 631.71,-597.7"
         style="fill:none;stroke:#ffffff;stroke-width:10;stroke-linecap:butt;stroke-linejoin:miter;stroke-miterlimit:4;stroke-dasharray:none;stroke-opacity:1"
         id="path92" /><path
         d="m 2623.32,5331.64 c -45.32,-16.74 -48.83,-70.78 -62.11,-139.02 0,0 175.75,-51.43 381.19,-380.24 0,0 207.65,-411.16 198.77,-841.57 0,0 5.75,159.71 5.61,188.63 0,0 9.1,-81.49 6.12,-106.61 0,0 5.38,30.5 6.03,59.97 0,0 10.35,-41.42 13.3,-144.95 0,0 17.75,72.48 14.74,276.63 0,0 1.44,142.92 -37.13,279.32 0,0 -53.16,180.15 -63.23,208.65 0,0 74.2,-185.93 101.95,-311.56 0,0 54.37,-196.25 36.19,-471.48 0,0 26.31,48.12 36.85,239.35 0,0 3.82,168.1 -37.59,316.74 l -37.62,132.43 c 0,0 44.91,-110.74 67.13,-235.18 0,0 38.47,-184.13 3.7,-369.77 0,0 -9.22,-89.78 -21.4,-122.83 0,0 20.19,38.38 37.24,201.33 0,0 18.4,116.65 -10.44,274.17 0,0 -18.69,101.4 -39.41,163.51 0,0 -88.14,318.07 -212.39,522.17 0,0 -118.3,210.03 -289.58,348.97 0,0 21.51,-44.52 -97.92,-88.66 v 0"
         style="fill:#ffffff;fill-opacity:1;fill-rule:nonzero;stroke:none"
         id="path94" /><g
         id="g96"><g
           id="g98"
           clip-path="url(#clipPath102)"><path
             d="m 3252.53,4424.49 c 0,0 -151.48,796.19 -524.68,1009.67"
             style="fill:none;stroke:#ffffff;stroke-width:0.591619;stroke-linecap:round;stroke-linejoin:miter;stroke-miterlimit:4;stroke-dasharray:none;stroke-opacity:1"
             id="path104" /><path
             d="m 2727.85,5434.16 c 0,0 358.65,-226.76 534.68,-1012.18 0,0 35.35,-147.1 15.11,-319.43"
             style="fill:none;stroke:#ffffff;stroke-width:2.9581;stroke-linecap:round;stroke-linejoin:miter;stroke-miterlimit:4;stroke-dasharray:none;stroke-opacity:1"
             id="path106" /></g></g><path
         d="m 3106.04,5114.29 c 0,0 173.61,-91.7 251.65,-369.89 0,0 113.97,-399.02 -83.79,-761.73 0,0 39.92,62.13 53.9,106.53 0,0 -17.42,-74.15 -25.82,-85.83 0,0 15.51,27.56 27.23,43.47 0,0 -4.88,-29.12 -49.5,-105.6 0,0 138.12,140.95 181.19,441.76 0,0 13.25,-99.06 -28.46,-231.08 0,0 -41.53,-145.38 -127.2,-244.05 0,0 124.67,77.19 201.7,404.75 0,0 33.13,139.77 28.88,270.74 0,0 4.49,341.26 -182.26,573.01 0,0 -48.77,62.34 -102.19,96.2 0,0 1.11,-35.53 -67.79,-68.36 0,0 -37.72,-17.46 -77.54,-69.92 v 0"
         style="fill:#ffffff;fill-opacity:1;fill-rule:nonzero;stroke:none"
         id="path108" /><path
         d="m 3486.4,4238.72 c 0,0 210.38,749.97 -231.45,1023.74"
         style="fill:none;stroke:#ffffff;stroke-width:1.47905;stroke-linecap:round;stroke-linejoin:miter;stroke-miterlimit:4;stroke-dasharray:none;stroke-opacity:1"
         id="path110" /><g
         id="g112"><g
           id="g114"
           clip-path="url(#clipPath118)"><path
             d="m 3254.95,5262.46 c 0,0 332.7,-184.62 285.38,-835.39 0,0 -14.8,-195.25 -136.05,-405.26"
             style="fill:none;stroke:#ffffff;stroke-width:2.9581;stroke-linecap:round;stroke-linejoin:miter;stroke-miterlimit:4;stroke-dasharray:none;stroke-opacity:1"
             id="path120" /><path
             d="m 3595.35,4348.92 c 0,0 214.86,-239.36 -270.46,-545.4"
             style="fill:none;stroke:#ffffff;stroke-width:1.18324;stroke-linecap:round;stroke-linejoin:miter;stroke-miterlimit:4;stroke-dasharray:none;stroke-opacity:1"
             id="path122" /><path
             d="m 2977.99,4806.99 c 0,0 1098.14,-219.95 623.13,-897.38"
             style="fill:none;stroke:#ffffff;stroke-width:0.887429;stroke-linecap:round;stroke-linejoin:miter;stroke-miterlimit:4;stroke-dasharray:none;stroke-opacity:1"
             id="path124" /></g></g><path
         d="m 3553,4184.61 c 0,0 62.26,269.72 -904.32,374.92"
         style="fill:none;stroke:#ffffff;stroke-width:5.91619;stroke-linecap:round;stroke-linejoin:miter;stroke-miterlimit:4;stroke-dasharray:none;stroke-opacity:1"
         id="path126" /><path
         d="m 2478.97,4285.86 c 0,0 97.25,-137.78 224.79,-212.43 0,0 121.74,-78.71 271.68,-143.1 0,0 -9.36,5.22 -23.65,21.54 0,0 16.67,-7.14 26.52,-10.54 0,0 -5.43,2.04 -12.23,11.9 0,0 42.81,-17.33 51.65,-18.68 0,0 -21.05,10.87 -39.42,20.73 0,0 -114.73,53.46 -201.66,131.12 0,0 49.27,-34.32 98.95,-57.31 0,0 84.65,-42.32 168.4,-66.24 0,0 -28.52,9.19 -56.13,26.68 0,0 -156.43,86.44 -163.21,99.02 0,0 60.84,-34.34 67.66,-37.72 0,0 15.28,-8.86 19.36,-10.89 0,0 -0.32,3.39 -12.58,8.49 0,0 -70.26,42.06 -88.05,53.73 0,0 -122.82,72.3 -216.72,217.97 0,0 -37.18,-0.85 -56.96,-21.44 0,0 -10.29,-13.24 -58.4,-12.83 v 0"
         style="fill:#ffffff;fill-opacity:1;fill-rule:nonzero;stroke:none"
         id="path128" /><path
         d="m 2471.51,4284.85 c 0,0 77.83,-168.47 409.85,-307.14"
         style="fill:none;stroke:#ffffff;stroke-width:1.47905;stroke-linecap:round;stroke-linejoin:miter;stroke-miterlimit:4;stroke-dasharray:none;stroke-opacity:1"
         id="path130" /><path
         d="m 2471.51,4284.85 c 0,0 137.74,-221.38 504.36,-356.78"
         style="fill:none;stroke:#ffffff;stroke-width:0.591619;stroke-linecap:round;stroke-linejoin:miter;stroke-miterlimit:4;stroke-dasharray:none;stroke-opacity:1"
         id="path132" /><g
         id="g134"><g
           id="g136"
           clip-path="url(#clipPath140)"><path
             d="m 2675.58,4580.38 c 0,0 454.86,-68.04 619.23,-145.1 0,0 408.04,-140.61 187.65,-400.31 0,0 -43.7,-56.85 -107.01,-96.98 0,0 11.6,2.12 35.68,20.55 0,0 -19.85,-31.1 -83.16,-69.08 0,0 54.86,16.9 149.05,88.58 0,0 121.7,90.87 136.61,225.07 0,0 12.21,67.7 -12.19,137.23 0,0 44.17,-40.37 44.53,-137.23 0,0 14.4,-209.18 -283.01,-392.79 0,0 56.06,18.67 140.15,77.14 0,0 283.49,181.55 165.16,476.36 0,0 71.48,-111.81 12.25,-274.24 0,0 -31.95,-110.03 -176.78,-234.18 0,0 67.71,31.05 128.83,126.99 0,0 76.17,103.43 77.13,219.08 0,0 16.22,169.27 -127.87,312.2 0,0 -146.4,152.12 -458.77,243.23 0,0 -82.92,26.03 -153.44,35.44 0,0 -26.69,-67.59 -67.72,-105.31 -39.44,-36.29 -130.79,-73.47 -226.32,-106.65 v 0"
             style="fill:#ffffff;fill-opacity:1;fill-rule:nonzero;stroke:none"
             id="path142" /></g></g></g></g></svg>
