<?xml version="1.0" encoding="UTF-8" standalone="no"?>
<svg
   id="svg8"
   version="1.1"
   viewBox="0 0 64.24041 75.14946"
   height="75.14946mm"
   width="64.24041mm"
   sodipodi:docname="hands white DIY Inkscape.svg"
   inkscape:version="1.2.2 (b0a8486541, 2022-12-01, custom)"
   xmlns:inkscape="http://www.inkscape.org/namespaces/inkscape"
   xmlns:sodipodi="http://sodipodi.sourceforge.net/DTD/sodipodi-0.dtd"
   xmlns="http://www.w3.org/2000/svg"
   xmlns:svg="http://www.w3.org/2000/svg"
   xmlns:rdf="http://www.w3.org/1999/02/22-rdf-syntax-ns#"
   xmlns:cc="http://creativecommons.org/ns#"
   xmlns:dc="http://purl.org/dc/elements/1.1/">
  <sodipodi:namedview
     id="namedview88"
     pagecolor="#ffffff"
     bordercolor="#111111"
     borderopacity="1"
     inkscape:showpageshadow="0"
     inkscape:pageopacity="0"
     inkscape:pagecheckerboard="1"
     inkscape:deskcolor="#d1d1d1"
     inkscape:document-units="mm"
     showgrid="false"
     inkscape:zoom="1.0006458"
     inkscape:cx="303.80379"
     inkscape:cy="210.36414"
     inkscape:window-width="3766"
     inkscape:window-height="2096"
     inkscape:window-x="3914"
     inkscape:window-y="1467"
     inkscape:window-maximized="1"
     inkscape:current-layer="g20" />
  <defs
     id="defs2">
    <clipPath
       clipPathUnits="userSpaceOnUse"
       id="clipPath92">
      <path
         d="M 642.105,5435.64 V 2666.7 H 3720.75 v 2768.94 z"
         id="path90" />
    </clipPath>
    <clipPath
       clipPathUnits="userSpaceOnUse"
       id="clipPath112">
      <path
         d="M 642.105,5435.64 V 2666.7 H 3720.75 v 2768.94 z"
         id="path110" />
    </clipPath>
    <clipPath
       clipPathUnits="userSpaceOnUse"
       id="clipPath128">
      <path
         d="M 642.105,5435.64 V 2666.7 H 3720.75 v 2768.94 z"
         id="path126" />
    </clipPath>
    <clipPath
       clipPathUnits="userSpaceOnUse"
       id="clipPath150">
      <path
         d="M 642.105,5435.64 V 2666.7 H 3720.75 v 2768.94 z"
         id="path148" />
    </clipPath>
  </defs>
  <metadata
     id="metadata5">
    <rdf:RDF>
      <cc:Work
         rdf:about="">
        <dc:format>image/svg+xml</dc:format>
        <dc:type
           rdf:resource="http://purl.org/dc/dcmitype/StillImage" />
      </cc:Work>
    </rdf:RDF>
  </metadata>
  <g
     style="display:inline"
     transform="translate(-112.09324,-22.468161)"
     id="layer1">
    <g
       style="fill:#ffffff;fill-opacity:1"
       id="g18"
       transform="matrix(0.46677263,0,0,-0.46677263,3.1494371,275.47293)">
      <g
         style="fill:#ffffff;fill-opacity:1"
         id="g20"
         transform="scale(0.1)">
        <path
           d="m 2333.98,4646.36 c 0,0 313.16,-71.55 481.35,-243.22 0,0 159.29,-136.02 225.11,-410.15 0,0 1.95,22.77 -1.27,49.05 0,0 10.51,-23.44 17.79,-48.11 0,0 -0.42,17.38 -3.24,29.1 0,0 18.2,-44.05 24.25,-80.84 0,0 -25.44,210.08 -136.49,400.55 0,0 79.93,-32.13 172.06,-375.08 0,0 -40.93,286.65 -160.96,442.38 0,0 -156.77,251.45 -532.44,364.59 0,0 -44.17,-24.11 -35.51,-64.33 0,0 -1.16,-50.02 -50.65,-63.94 v 0"
           style="fill:#eb1b29;fill-opacity:1;fill-rule:nonzero;stroke:none"
           id="path98" />
        <path
           d="m 2623.32,5331.64 c -45.32,-16.74 -48.83,-70.78 -62.11,-139.02 0,0 175.75,-51.43 381.19,-380.24 0,0 207.65,-411.16 198.77,-841.57 0,0 5.75,159.71 5.61,188.63 0,0 9.1,-81.49 6.12,-106.61 0,0 5.38,30.5 6.03,59.97 0,0 10.35,-41.42 13.3,-144.95 0,0 17.75,72.48 14.74,276.63 0,0 1.44,142.92 -37.13,279.32 0,0 -53.16,180.15 -63.23,208.65 0,0 74.2,-185.93 101.95,-311.56 0,0 54.37,-196.25 36.19,-471.48 0,0 26.31,48.12 36.85,239.35 0,0 3.82,168.1 -37.59,316.74 l -37.62,132.43 c 0,0 44.91,-110.74 67.13,-235.18 0,0 38.47,-184.13 3.7,-369.77 0,0 -9.22,-89.78 -21.4,-122.83 0,0 20.19,38.38 37.24,201.33 0,0 18.4,116.65 -10.44,274.17 0,0 -18.69,101.4 -39.41,163.51 0,0 -88.14,318.07 -212.39,522.17 0,0 -118.3,210.03 -289.58,348.97 0,0 21.51,-44.52 -97.92,-88.66 v 0"
           style="fill:#295caa;fill-opacity:1;fill-rule:nonzero;stroke:none"
           id="path104" />
        <path
           d="m 3106.04,5114.29 c 0,0 173.61,-91.7 251.65,-369.89 0,0 113.97,-399.02 -83.79,-761.73 0,0 39.92,62.13 53.9,106.53 0,0 -17.42,-74.15 -25.82,-85.83 0,0 15.51,27.56 27.23,43.47 0,0 -4.88,-29.12 -49.5,-105.6 0,0 138.12,140.95 181.19,441.76 0,0 13.25,-99.06 -28.46,-231.08 0,0 -41.53,-145.38 -127.2,-244.05 0,0 124.67,77.19 201.7,404.75 0,0 33.13,139.77 28.88,270.74 0,0 4.49,341.26 -182.26,573.01 0,0 -48.77,62.34 -102.19,96.2 0,0 1.11,-35.53 -67.79,-68.36 0,0 -37.72,-17.46 -77.54,-69.92 v 0"
           style="fill:#26813b;fill-opacity:1;fill-rule:nonzero;stroke:none"
           id="path118" />
        <path
           d="m 2478.97,4285.86 c 0,0 97.25,-137.78 224.79,-212.43 0,0 121.74,-78.71 271.68,-143.1 0,0 -9.36,5.22 -23.65,21.54 0,0 16.67,-7.14 26.52,-10.54 0,0 -5.43,2.04 -12.23,11.9 0,0 42.81,-17.33 51.65,-18.68 0,0 -21.05,10.87 -39.42,20.73 0,0 -114.73,53.46 -201.66,131.12 0,0 49.27,-34.32 98.95,-57.31 0,0 84.65,-42.32 168.4,-66.24 0,0 -28.52,9.19 -56.13,26.68 0,0 -156.43,86.44 -163.21,99.02 0,0 60.84,-34.34 67.66,-37.72 0,0 15.28,-8.86 19.36,-10.89 0,0 -0.32,3.39 -12.58,8.49 0,0 -70.26,42.06 -88.05,53.73 0,0 -122.82,72.3 -216.72,217.97 0,0 -37.18,-0.85 -56.96,-21.44 0,0 -10.29,-13.24 -58.4,-12.83 v 0"
           style="fill:#040606;fill-opacity:1;fill-rule:nonzero;stroke:none"
           id="path138" />
        <path
           d="m 2471.51,4284.85 c 0,0 77.83,-168.47 409.85,-307.14"
           style="fill:#fbd31b;fill-opacity:1;stroke:#ffffff;stroke-width:1.47905;stroke-linecap:round;stroke-linejoin:miter;stroke-miterlimit:4;stroke-dasharray:none;stroke-opacity:1"
           id="path140" />
        <path
           d="m 2471.51,4284.85 c 0,0 137.74,-221.38 504.36,-356.78"
           style="fill:#040606;fill-opacity:1;stroke:#ffffff;stroke-width:0.591619;stroke-linecap:round;stroke-linejoin:miter;stroke-miterlimit:4;stroke-dasharray:none;stroke-opacity:1"
           id="path142" />
        <g
           style="fill:#ffffff;fill-opacity:1"
           id="g144">
          <g
             style="fill:#ffffff;fill-opacity:1"
             id="g146"
             clip-path="url(#clipPath150)">
            <path
               d="m 2675.58,4580.38 c 0,0 454.86,-68.04 619.23,-145.1 0,0 408.04,-140.61 187.65,-400.31 0,0 -43.7,-56.85 -107.01,-96.98 0,0 11.6,2.12 35.68,20.55 0,0 -19.85,-31.1 -83.16,-69.08 0,0 54.86,16.9 149.05,88.58 0,0 121.7,90.87 136.61,225.07 0,0 12.21,67.7 -12.19,137.23 0,0 44.17,-40.37 44.53,-137.23 0,0 14.4,-209.18 -283.01,-392.79 0,0 56.06,18.67 140.15,77.14 0,0 283.49,181.55 165.16,476.36 0,0 71.48,-111.81 12.25,-274.24 0,0 -31.95,-110.03 -176.78,-234.18 0,0 67.71,31.05 128.83,126.99 0,0 76.17,103.43 77.13,219.08 0,0 16.22,169.27 -127.87,312.2 0,0 -146.4,152.12 -458.77,243.23 0,0 -82.92,26.03 -153.44,35.44 0,0 -26.69,-67.59 -67.72,-105.31 -39.44,-36.29 -130.79,-73.47 -226.32,-106.65 v 0"
               style="fill:#fbd31b;fill-opacity:1;fill-rule:nonzero;stroke:none"
               id="path152" />
          </g>
        </g>
      </g>
    </g>
  </g>
</svg>
