<?xml version="1.0" encoding="utf-8"?>
<!DOCTYPE svg PUBLIC "-//W3C//DTD SVG 1.1//EN" "http://www.w3.org/Graphics/SVG/1.1/DTD/svg11.dtd">
<svg version="1.1"
   xmlns="http://www.w3.org/2000/svg"
   xmlns:xlink="http://www.w3.org/1999/xlink"
   x="0px"
   y="0px"
   width="277.513px"
   height="146.438px"
   viewBox="0 0 277.513 146.438"
   enable-background="new 0 0 277.513 146.438"
   xml:space="preserve">
   <g id="BG"
      display="none">
      <rect x="0.001"
         display="inline"
         fill="#939393"
         width="277.512"
         height="146.438" />
   </g>
   <g id="Logo">
      <g>
         <path fill="#FFFFFF"
            d="M105.188,51.619c0,0,6.465-1.143,8.582-6.283c0,0,37.637,7.709,15.418,27.787
			c0,0,8.246-7.764,3.641-13.975c0,0,2.57,7.711-7.494,12.903C125.334,72.052,147.162,56.547,105.188,51.619" />
         <path fill="#FFFFFF"
            d="M125.811,48.808c2.633,1.302,4.475,2.582,5.553,3.423c0.471-13.477-9.188-21.01-9.188-21.01
			c-0.281,0.865-1.127,1.828-2.33,2.27c-1.205,0.442-1.928,1.887-1.928,1.887C122.641,39.304,124.908,44.1,125.811,48.808" />
         <path fill="#FFFFFF"
            d="M112.77,46.29c0.57-0.851,0.729-1.437,0.729-1.437c2.488,0.442,4.721,1.025,6.711,1.678
			c-4.125-11.76-11.795-18.193-11.795-18.193c-0.213,0.615-2.463,1.739-3.988,2.408c-1.525,0.67-1.125,3.507-1.125,3.507
			C107.494,37.72,110.547,41.961,112.77,46.29" />
         <path fill="#FFFFFF"
            d="M128.547,59.316c-0.518,5.801-3.965,11.958-3.965,11.958c2.434-3.698,4.098-7.172,5.172-10.409
			C129.451,60.318,129.045,59.803,128.547,59.316" />
         <path fill="#FFFFFF"
            d="M128.096,58.903c-0.566-0.486-1.225-0.944-1.951-1.372c-0.604,6.242-2.686,10.935-2.686,10.935
			c1.205-1.366,2.129-3.574,2.129-3.574c0.039,1.565-1.246,4.658-1.246,4.658C126.553,65.998,127.611,61.682,128.096,58.903" />
         <path fill="#FFFFFF"
            d="M115.033,71.056c-1.338-0.72-3.279-1.486-7.268-4.575c3.02,2.272,8.059,3.726,8.059,3.726
			c-11.129-5.649-13.553-10.771-13.553-10.771c-1.072-0.035-1.719,0.646-2.143,0.877c-0.424,0.233-1.58,0.213-1.58,0.213
			C102.789,67.363,115.033,71.056,115.033,71.056" />
         <path fill="#FFFFFF"
            d="M110.055,52.65c-3.697-0.614-6.414-0.851-6.414-0.851c1.479-0.37,2.736-0.821,3.811-1.313
			c-5.203-3.79-10.387-4.724-10.387-4.724s-0.965,0.321-1.098,1.928s-1.365,1.82-1.365,1.82
			c19.436,5.193,22.352,21.201,22.352,21.201c-1.324-7.229-4.135-11.845-4.135-11.845c2.971,3.051,5.02,10.802,5.02,10.802
			C117.178,61.658,113.855,56.258,110.055,52.65" />
         <path fill="#FFFFFF"
            d="M115.871,53.808c2.799,8.634,2.852,15.942,2.852,15.942c2.068-4.015,1.523-13.252,1.523-13.252
			c1.93,3.775,1.688,14.055,1.688,14.055c0.988-5.401,1.025-10.342,0.461-14.788C120.342,54.978,118.084,54.334,115.871,53.808" />
         <path fill="#FFFFFF"
            d="M91.694,84.554c-1.107-0.364-1.918-0.576-3.24-0.576c-0.973,0-2.133,0.343-2.133,1.496
			c0,2.151,6.291,0.787,6.291,5.661c0,3.15-2.889,4.409-5.832,4.409c-1.381,0-2.783-0.235-4.107-0.577l0.217-2.886
			c1.133,0.551,2.322,0.892,3.564,0.892c0.918,0,2.379-0.341,2.379-1.651c0-2.648-6.295-0.839-6.295-5.717
			c0-2.911,2.619-4.198,5.455-4.198c1.703,0,2.811,0.266,3.943,0.5L91.694,84.554z" />
         <rect x="108.547"
            y="81.739"
            fill="#FFFFFF"
            width="3.621"
            height="13.507" />
         <path fill="#FFFFFF"
            d="M134.805,84.554c-1.105-0.364-1.916-0.576-3.24-0.576c-0.973,0-2.133,0.343-2.133,1.496
			c0,2.151,6.293,0.787,6.293,5.661c0,3.15-2.891,4.409-5.834,4.409c-1.379,0-2.781-0.235-4.105-0.577l0.217-2.886
			c1.133,0.551,2.322,0.892,3.563,0.892c0.92,0,2.379-0.341,2.379-1.651c0-2.648-6.293-0.839-6.293-5.717
			c0-2.911,2.619-4.198,5.457-4.198c1.699,0,2.807,0.266,3.941,0.5L134.805,84.554z" />
         <polygon fill="#FFFFFF"
            points="101.479,87.793 106.605,81.739 102.338,81.739 98.018,87.143 97.961,87.143 97.961,74.473 
			94.342,75.577 94.342,95.246 97.961,95.246 97.961,88.689 98.018,88.689 102.662,95.246 107.254,95.246 		" />
         <polygon fill="#FFFFFF"
            points="114.504,75.577 114.504,95.246 118.121,95.246 118.121,74.473 		" />
         <polygon fill="#FFFFFF"
            points="120.209,75.577 120.205,75.577 120.205,95.246 123.826,95.246 123.826,74.473 		" />
         <path fill="#FFFFFF"
            d="M112.449,76.697c0-1.114-0.904-2.017-2.016-2.017s-2.016,0.902-2.016,2.017
			c0,1.113,0.904,2.018,2.016,2.018S112.449,77.811,112.449,76.697" />
         <path fill="#FFFFFF"
            d="M49.598,81.704c-4.71,0-6.381,3.744-6.381,6.953c0,3.208,1.671,6.954,6.381,6.954
			c4.711,0,6.381-3.746,6.381-6.954C55.979,85.448,54.309,81.704,49.598,81.704 M49.598,94.289c-2.758,0-4.611-2.264-4.611-5.632
			c0-3.37,1.854-5.634,4.611-5.634s4.611,2.264,4.611,5.634C54.209,92.025,52.355,94.289,49.598,94.289" />
         <path fill="#FFFFFF"
            d="M59.041,84.146v-2.179H57.54l0.001,13.279h1.608v-6.562l-0.004-0.084c0.004-2.448,0.695-5.372,3.996-5.372
			l0.504,0.025l0.006-0.053l0.08-1.55h-0.188C61.315,81.651,59.804,82.492,59.041,84.146" />
         <path fill="#FFFFFF"
            d="M80.368,75.213l-1.543,0.473v8.209c-0.334-0.561-1.588-2.278-4.396-2.244
			c-4.648,0.06-5.625,3.814-5.625,6.956c0,4.288,2.156,6.954,5.625,6.954c2.066,0,3.465-0.761,4.396-2.375v2.061h1.607V75.192
			L80.368,75.213z M74.698,94.238c-3.723,0-4.125-3.938-4.125-5.632c0-1.694,0.402-5.633,4.125-5.633
			c2.852,0,4.127,2.828,4.127,5.633C78.825,91.41,77.55,94.238,74.698,94.238" />
         <polygon fill="#FFFFFF"
            points="66.95,75.215 65.407,75.686 65.407,95.246 67.015,95.246 67.015,75.194 		" />
         <path fill="#FFFFFF"
            d="M24.418,81.965h-1.727l0.022,0.067c0.081,0.25,4.325,13.062,4.364,13.179l0.012,0.035h1.983
			c0,0,3.733-11.495,3.755-11.567h0.123c0.023,0.072,3.754,11.567,3.754,11.567h1.986l4.506-13.281h-1.603
			c0,0-3.786,11.496-3.81,11.565h-0.121c-0.022-0.069-3.646-11.565-3.646-11.565h-1.984c0,0-3.814,11.496-3.838,11.565h-0.121
			c-0.022-0.07-3.62-11.565-3.62-11.565H24.418z" />
         <path fill="#FFFFFF"
            d="M35.808,108.252h-4.251v-1.574h6.062v9.104c-1.819,0.771-3.717,1.147-5.693,1.13
			c-2.905-0.036-5.161-0.911-6.771-2.625c-1.645-1.697-2.467-3.979-2.467-6.849c0.018-2.833,0.848-5.116,2.492-6.849
			c1.627-1.715,3.875-2.589,6.745-2.624c0.752,0,1.601,0.061,2.545,0.184c0.927,0.14,1.714,0.367,2.361,0.682l-0.21,1.681
			c-0.717-0.386-1.469-0.657-2.256-0.814c-0.805-0.104-1.619-0.157-2.44-0.157c-2.38,0.035-4.208,0.778-5.485,2.23
			c-1.295,1.453-1.941,3.342-1.941,5.668c0,2.345,0.639,4.233,1.915,5.668c1.26,1.469,3.097,2.213,5.512,2.229
			c0.612,0,1.303-0.052,2.073-0.157c0.752-0.069,1.355-0.234,1.81-0.498V108.252z" />
         <path fill="#FFFFFF"
            d="M49.689,116.176c-1.26,0.473-2.555,0.719-3.884,0.736c-2.188-0.036-3.753-0.708-4.698-2.021
			c-0.944-1.275-1.408-2.938-1.391-4.985c0.018-2.082,0.543-3.77,1.574-5.063c0.998-1.277,2.354-1.926,4.068-1.943
			c1.872,0.036,3.236,0.692,4.094,1.968c0.822,1.261,1.232,2.817,1.232,4.672v0.84h-9.158c0,1.451,0.377,2.649,1.129,3.594
			c0.734,0.997,1.828,1.505,3.281,1.522c0.646,0,1.329-0.114,2.046-0.342c0.718-0.19,1.286-0.409,1.706-0.655V116.176z
			 M48.875,108.961c0-1.225-0.253-2.292-0.76-3.203c-0.544-0.925-1.426-1.406-2.65-1.442c-1.209,0.036-2.162,0.526-2.861,1.471
			c-0.717,0.944-1.076,2.003-1.076,3.175H48.875z" />
         <path fill="#FFFFFF"
            d="M52.523,106.206c0-1.242-0.035-2.241-0.105-2.993h1.652v2.573h0.053c0.314-0.789,0.763-1.461,1.338-2.021
			c0.561-0.562,1.26-0.85,2.1-0.867c0.438,0.018,0.823,0.071,1.156,0.159v1.731c-0.367-0.105-0.77-0.159-1.207-0.159
			c-0.648,0.018-1.182,0.177-1.603,0.473c-0.418,0.314-0.761,0.744-1.021,1.287c-0.247,0.523-0.421,1.093-0.526,1.705
			c-0.123,0.647-0.184,1.277-0.184,1.89v6.613h-1.652V106.206z" />
         <path fill="#FFFFFF"
            d="M76.112,116.598v-8.896c0-0.489-0.035-0.946-0.105-1.364c-0.104-0.402-0.27-0.752-0.498-1.05
			c-0.209-0.314-0.498-0.561-0.865-0.736c-0.367-0.157-0.822-0.235-1.365-0.235c-0.928,0-1.75,0.386-2.465,1.154
			c-0.736,0.806-1.113,2.048-1.131,3.728v7.4h-1.65v-8.896c0-0.489-0.037-0.946-0.107-1.364c-0.105-0.402-0.271-0.752-0.498-1.05
			c-0.211-0.314-0.498-0.561-0.865-0.736c-0.369-0.157-0.822-0.235-1.365-0.235c-0.928,0-1.75,0.386-2.467,1.154
			c-0.734,0.806-1.111,2.048-1.127,3.728v7.4h-1.654v-10.234c0-1.032-0.035-2.083-0.105-3.15h1.602v2.257l0.053,0.027
			c0.121-0.246,0.289-0.518,0.498-0.813c0.176-0.297,0.42-0.578,0.734-0.839c0.314-0.265,0.709-0.49,1.182-0.683
			c0.473-0.175,1.059-0.264,1.758-0.264c0.314,0,0.656,0.036,1.023,0.106c0.35,0.068,0.699,0.208,1.049,0.418
			c0.352,0.194,0.656,0.474,0.918,0.84c0.264,0.385,0.447,0.876,0.551,1.471h0.053c0.332-0.805,0.867-1.479,1.602-2.021
			c0.719-0.525,1.609-0.796,2.678-0.813c1.363,0.018,2.414,0.438,3.148,1.261c0.717,0.803,1.074,1.88,1.074,3.228v9.211H76.112z" />
         <path fill="#FFFFFF"
            d="M88.183,114.444h-0.051c-0.385,0.787-0.971,1.392-1.758,1.811c-0.789,0.421-1.619,0.64-2.494,0.657
			c-0.926-0.018-1.68-0.168-2.258-0.447c-0.594-0.261-1.047-0.594-1.363-0.996c-0.561-0.876-0.822-1.654-0.787-2.336
			c0-1.12,0.271-2.003,0.813-2.65c0.525-0.647,1.199-1.11,2.021-1.391c0.822-0.297,1.713-0.49,2.678-0.577
			c0.943-0.053,1.852-0.079,2.729-0.079h0.314v-0.682c0.053-2.292-0.963-3.438-3.043-3.438c-1.385-0.018-2.695,0.351-3.938,1.104
			v-1.574c1.242-0.595,2.553-0.91,3.938-0.946c3.166-0.035,4.73,1.628,4.695,4.985v5.906c-0.018,1.015,0.027,1.95,0.131,2.808
			h-1.627V114.444z M88.026,109.853h-0.473c-0.719,0-1.434,0.018-2.152,0.053c-0.752,0.07-1.434,0.219-2.047,0.446
			c-0.613,0.21-1.102,0.533-1.469,0.971c-0.402,0.438-0.604,1.023-0.604,1.758c0,0.857,0.279,1.469,0.838,1.837
			c0.525,0.385,1.174,0.577,1.943,0.577c0.961,0,1.723-0.192,2.283-0.577c0.543-0.368,0.936-0.805,1.182-1.313
			c0.262-0.542,0.41-1.075,0.445-1.601c0.035-0.542,0.053-0.988,0.053-1.338V109.853z" />
         <path fill="#FFFFFF"
            d="M92.304,106.363c0-1.033-0.035-2.082-0.105-3.15h1.601v2.39h0.051c0.158-0.315,0.342-0.63,0.553-0.945
			c0.209-0.315,0.471-0.603,0.787-0.867c0.33-0.278,0.742-0.498,1.232-0.655c0.488-0.156,1.076-0.236,1.758-0.236
			c1.645,0.018,2.826,0.509,3.543,1.471c0.682,0.943,1.023,2.169,1.023,3.673v8.556h-1.652v-8.136c0-1.276-0.236-2.293-0.709-3.043
			c-0.508-0.718-1.33-1.085-2.467-1.104c-1.469,0.036-2.502,0.561-3.096,1.575c-0.316,0.473-0.535,0.988-0.656,1.548
			c-0.141,0.577-0.211,1.163-0.211,1.759v7.4h-1.651V106.363z" />
         <path fill="#FFFFFF"
            d="M109.307,114.365h0.027l3.855-11.152h1.732l-5.354,15.379c-0.299,0.962-0.707,1.8-1.232,2.519
			c-0.262,0.35-0.578,0.621-0.945,0.813c-0.367,0.21-0.787,0.323-1.26,0.341c-0.613,0-1.207-0.07-1.785-0.21l0.16-1.417
			c0.156,0.053,0.33,0.097,0.523,0.132c0.191,0.052,0.428,0.078,0.707,0.078c0.684-0.018,1.199-0.297,1.551-0.84
			c0.348-0.507,0.637-1.199,0.865-2.072l0.342-1.181l-4.752-13.542h1.811L109.307,114.365z" />
         <path id="path38_7_"
            fill="#FFFFFF"
            d="M160.096,77.797v44.135h-1.403V77.797H160.096" />
         <g>
            <defs>
               <rect id="SVGID_9_"
                  x="174.573"
                  y="97.682"
                  width="89.475"
                  height="28.347" />
            </defs>
            <clipPath id="SVGID_2_">
               <use xlink:href="#SVGID_9_"
                  overflow="visible" />
            </clipPath>
            <path clip-path="url(#SVGID_2_)"
               fill="#FFFFFF"
               d="M185.333,106.008l0.314-0.468l0.469,0.314
				c0.475,0.319,0.926,0.665,1.354,1.033c0.434-0.539,0.967-0.997,1.572-1.341c0.82-0.47,1.762-0.72,2.715-0.72
				s1.893,0.25,2.715,0.72c0.604,0.344,1.137,0.802,1.572,1.341c0.426-0.368,0.879-0.714,1.352-1.033l0.469-0.314l0.314,0.468
				c0.857,1.278,1.313,2.768,1.313,4.312c0,2.065-0.805,4.009-2.266,5.469c-1.461,1.461-3.404,2.266-5.469,2.266
				c-2.068,0-4.01-0.805-5.469-2.266c-1.463-1.46-2.266-3.403-2.266-5.469C184.022,108.775,184.474,107.286,185.333,106.008
				 M196.427,114.991c1.25-1.248,1.938-2.908,1.938-4.672c0-1.126-0.281-2.216-0.82-3.188c-3.125,2.312-5.035,5.893-5.209,9.771
				C193.88,116.77,195.317,116.102,196.427,114.991 M195.216,107.662c-0.354-0.461-0.797-0.849-1.303-1.137
				c-0.654-0.372-1.398-0.569-2.156-0.569s-1.504,0.197-2.158,0.569c-0.506,0.288-0.949,0.676-1.303,1.137
				c1.625,1.653,2.813,3.677,3.461,5.888C192.403,111.339,193.589,109.315,195.216,107.662 M187.085,114.991
				c1.109,1.11,2.547,1.778,4.096,1.91c-0.176-3.878-2.09-7.459-5.213-9.771c-0.537,0.973-0.818,2.063-0.818,3.188
				C185.149,112.083,185.837,113.743,187.085,114.991" />
         </g>
         <g>
            <polygon fill="#FFFFFF"
               points="216.698,107.131 214.022,114.766 211.345,107.131 209.858,107.131 206.577,116.58 
				208.007,116.58 210.597,108.733 213.39,116.58 214.677,116.58 217.437,108.749 220.007,116.58 221.435,116.58 218.185,107.131 
							" />
            <g>
               <path fill="#FFFFFF"
                  d="M250.929,106.899c-2.092,0-3.449,1.034-3.648,2.776h1.391c0.164-1.014,0.959-1.589,2.236-1.589
					c1.539,0,2.355,0.803,2.355,2.254v0.425l-3.82,0.662c-1.74,0.312-2.715,1.285-2.715,2.708c0,1.635,1.258,2.681,3.252,2.681
					c1.59,0,2.74-0.604,3.352-1.714v1.478h1.27v-6.157C254.601,108.191,253.255,106.899,250.929,106.899 M253.263,112.866
					c0,1.736-1.148,2.798-3.035,2.798c-1.4,0-2.145-0.541-2.145-1.575c0-0.856,0.541-1.392,1.615-1.581l3.564-0.637V112.866z" />
               <polygon fill="#FFFFFF"
                  points="242.28,114.981 239.521,107.131 238.233,107.131 235.438,114.995 232.851,107.131 
					231.421,107.131 234.706,116.579 236.188,116.579 238.864,108.95 241.544,116.579 243.028,116.579 246.278,107.131 
					244.849,107.131 				" />
               <path fill="#FFFFFF"
                  d="M226.44,106.899c-2.605,0-4.352,1.981-4.352,4.983c0,2.986,1.766,4.934,4.473,4.934
					c2.02,0,3.477-1.112,3.953-2.925h-1.379c-0.404,1.119-1.311,1.754-2.592,1.754c-1.85,0-2.975-1.288-3.088-3.456h7.238v-0.497
					C230.694,108.821,228.974,106.899,226.44,106.899 M223.478,111.09c0.225-1.882,1.283-3.022,2.914-3.022
					c1.656,0,2.76,1.161,2.941,3.022H223.478z" />
            </g>
         </g>
         <path id="path14_7_"
            fill="#FFFFFF"
            d="M188.876,84.386v2.616c-0.089,0.036-0.2,0.073-0.334,0.111
			c-0.134,0.04-0.281,0.076-0.445,0.113c-0.163,0.034-0.34,0.062-0.53,0.084c-0.189,0.02-0.385,0.03-0.587,0.03
			c-0.35,0-0.679-0.058-0.984-0.174c-0.306-0.115-0.574-0.297-0.805-0.542c-0.232-0.247-0.415-0.563-0.549-0.949
			c-0.133-0.385-0.199-0.852-0.199-1.398c0-0.557,0.066-1.032,0.199-1.424c0.134-0.393,0.312-0.713,0.535-0.962
			c0.222-0.25,0.477-0.431,0.765-0.548c0.288-0.115,0.587-0.173,0.896-0.173c0.268,0,0.502,0.026,0.704,0.08
			c0.201,0.052,0.38,0.13,0.534,0.23c0.153,0.102,0.287,0.223,0.4,0.365c0.112,0.144,0.214,0.304,0.303,0.481l-0.57,0.348
			c-0.137-0.268-0.311-0.479-0.521-0.638c-0.21-0.157-0.495-0.236-0.851-0.236c-0.207,0-0.411,0.049-0.61,0.144
			c-0.198,0.095-0.374,0.243-0.524,0.444c-0.152,0.203-0.273,0.461-0.365,0.774c-0.094,0.315-0.139,0.691-0.139,1.123
			c0,0.386,0.048,0.73,0.143,1.033c0.096,0.303,0.225,0.557,0.387,0.766c0.164,0.207,0.354,0.365,0.57,0.472s0.447,0.16,0.689,0.16
			c0.268,0,0.499-0.017,0.695-0.049s0.357-0.069,0.48-0.111v-1.549h-0.979v-0.623H188.876" />
         <path id="path16_7_"
            fill="#FFFFFF"
            d="M193.157,84.51c-0.006-0.181-0.041-0.34-0.106-0.478c-0.065-0.137-0.149-0.252-0.249-0.342
			c-0.102-0.091-0.217-0.158-0.348-0.202s-0.262-0.065-0.392-0.065c-0.286,0-0.53,0.084-0.735,0.25
			c-0.203,0.166-0.346,0.444-0.422,0.837H193.157z M190.843,85.063c0,0.539,0.121,0.96,0.365,1.26
			c0.243,0.299,0.597,0.448,1.059,0.448c0.268,0,0.493-0.064,0.678-0.195c0.184-0.13,0.332-0.29,0.444-0.481l0.454,0.304
			c-0.154,0.267-0.354,0.488-0.601,0.663c-0.246,0.176-0.578,0.262-0.993,0.262c-0.32,0-0.608-0.047-0.863-0.146
			c-0.256-0.098-0.475-0.239-0.654-0.428c-0.182-0.186-0.32-0.419-0.419-0.699c-0.098-0.278-0.147-0.602-0.147-0.969
			c0-0.339,0.046-0.644,0.139-0.913c0.092-0.27,0.22-0.502,0.383-0.694c0.163-0.193,0.362-0.342,0.598-0.445
			c0.233-0.104,0.492-0.157,0.778-0.157c0.314,0,0.589,0.055,0.823,0.162c0.234,0.106,0.43,0.256,0.584,0.449
			s0.27,0.424,0.347,0.694c0.077,0.27,0.116,0.565,0.116,0.887H190.843" />
         <path id="path18_7_"
            fill="#FFFFFF"
            d="M195.401,87.227v-3.688h-0.623v-0.552h0.633v-0.313c0-0.273,0.031-0.508,0.093-0.698
			c0.063-0.19,0.151-0.346,0.263-0.466c0.113-0.12,0.246-0.205,0.4-0.258c0.155-0.055,0.328-0.081,0.518-0.081
			c0.225,0,0.416,0.021,0.574,0.066s0.295,0.1,0.413,0.165l-0.204,0.525c-0.101-0.049-0.211-0.092-0.334-0.13
			c-0.122-0.038-0.26-0.058-0.414-0.058c-0.101,0-0.189,0.012-0.268,0.036c-0.076,0.023-0.143,0.07-0.195,0.14
			c-0.054,0.068-0.094,0.164-0.125,0.287c-0.03,0.122-0.045,0.281-0.045,0.478v0.307h1.069l-0.099,0.552h-0.961v3.688H195.401" />
         <path id="path20_7_"
            fill="#FFFFFF"
            d="M200.773,81.973c-0.118,0-0.221-0.05-0.308-0.146c-0.085-0.1-0.128-0.216-0.128-0.354
			c0-0.136,0.043-0.253,0.128-0.347c0.087-0.095,0.189-0.144,0.308-0.144c0.124,0,0.229,0.049,0.317,0.144
			c0.085,0.094,0.129,0.211,0.129,0.347c0,0.138-0.044,0.254-0.129,0.354C201.003,81.923,200.897,81.973,200.773,81.973z
			 M199.242,81.973c-0.124,0-0.23-0.05-0.315-0.146c-0.086-0.1-0.13-0.216-0.13-0.354c0-0.136,0.044-0.253,0.13-0.347
			c0.085-0.095,0.191-0.144,0.315-0.144c0.119,0,0.222,0.049,0.308,0.144c0.086,0.094,0.129,0.211,0.129,0.347
			c0,0.138-0.043,0.254-0.129,0.354C199.464,81.923,199.361,81.973,199.242,81.973z M201.282,85.093c0-0.206-0.027-0.412-0.08-0.613
			c-0.055-0.2-0.136-0.38-0.245-0.537c-0.11-0.157-0.247-0.282-0.41-0.377c-0.164-0.095-0.354-0.143-0.574-0.143
			s-0.411,0.048-0.575,0.143c-0.162,0.095-0.297,0.22-0.404,0.377c-0.106,0.157-0.188,0.335-0.24,0.533
			c-0.055,0.198-0.081,0.401-0.081,0.608c0,0.213,0.026,0.421,0.081,0.622c0.053,0.201,0.135,0.38,0.244,0.537
			c0.11,0.157,0.246,0.284,0.41,0.382c0.164,0.097,0.352,0.146,0.565,0.146c0.22,0,0.41-0.049,0.574-0.146
			c0.163-0.098,0.3-0.225,0.41-0.382c0.109-0.157,0.19-0.336,0.245-0.537C201.255,85.505,201.282,85.299,201.282,85.093z
			 M201.95,85.097c0,0.28-0.043,0.553-0.125,0.82c-0.084,0.266-0.207,0.503-0.371,0.712c-0.162,0.207-0.368,0.375-0.617,0.503
			c-0.25,0.128-0.538,0.19-0.864,0.19s-0.614-0.063-0.859-0.19c-0.246-0.128-0.452-0.297-0.618-0.507
			c-0.168-0.211-0.292-0.452-0.375-0.723c-0.083-0.27-0.124-0.544-0.124-0.822c0-0.279,0.039-0.551,0.12-0.815
			c0.08-0.264,0.203-0.499,0.369-0.707s0.372-0.375,0.619-0.499c0.246-0.125,0.535-0.188,0.868-0.188
			c0.326,0,0.614,0.064,0.864,0.192c0.249,0.127,0.455,0.295,0.617,0.503c0.164,0.208,0.287,0.446,0.371,0.712
			C201.907,84.545,201.95,84.818,201.95,85.097" />
         <path id="path22_7_"
            fill="#FFFFFF"
            d="M203.324,87.227v-4.194l0.614-0.107l0.063,0.428c0.112-0.119,0.259-0.229,0.437-0.329
			c0.177-0.103,0.359-0.153,0.542-0.153c0.131,0,0.252,0.01,0.361,0.028c0.11,0.016,0.194,0.035,0.254,0.053l-0.125,0.633
			c-0.159-0.065-0.346-0.1-0.561-0.1c-0.172,0-0.336,0.049-0.494,0.144c-0.157,0.095-0.293,0.193-0.404,0.294v3.305H203.324" />
         <path id="path24_7_"
            fill="#FFFFFF"
            d="M209.283,83.628c-0.036-0.022-0.085-0.048-0.146-0.07c-0.063-0.024-0.134-0.047-0.21-0.067
			c-0.077-0.02-0.156-0.038-0.24-0.049c-0.083-0.012-0.163-0.019-0.24-0.019c-0.248,0-0.467,0.048-0.65,0.143
			c-0.184,0.096-0.337,0.222-0.458,0.379c-0.122,0.158-0.213,0.337-0.272,0.537c-0.059,0.203-0.089,0.408-0.089,0.615
			c0,0.238,0.026,0.459,0.081,0.664c0.053,0.204,0.135,0.381,0.245,0.53c0.108,0.148,0.245,0.265,0.409,0.352
			c0.163,0.086,0.357,0.128,0.582,0.128c0.179,0,0.354-0.036,0.525-0.111c0.172-0.073,0.328-0.196,0.464-0.368V83.628z
			 M209.337,87.227l-0.054-0.349c-0.154,0.16-0.321,0.275-0.503,0.343s-0.379,0.102-0.592,0.102c-0.305,0-0.572-0.057-0.807-0.173
			s-0.431-0.274-0.592-0.476c-0.16-0.202-0.282-0.44-0.365-0.717c-0.082-0.276-0.125-0.574-0.125-0.895
			c0-0.274,0.043-0.542,0.129-0.806c0.087-0.266,0.215-0.499,0.383-0.703c0.17-0.205,0.383-0.371,0.639-0.495
			c0.254-0.125,0.551-0.188,0.889-0.188c0.215,0,0.398,0.019,0.553,0.05c0.154,0.032,0.285,0.07,0.392,0.112v-1.745l0.686-0.116
			v6.056H209.337" />
         <path id="path26_7_"
            fill="#FFFFFF"
            d="M214.337,84.51c-0.006-0.181-0.041-0.34-0.105-0.478c-0.066-0.137-0.15-0.252-0.25-0.342
			c-0.102-0.091-0.217-0.158-0.348-0.202s-0.261-0.065-0.391-0.065c-0.286,0-0.53,0.084-0.735,0.25
			c-0.204,0.166-0.345,0.444-0.423,0.837H214.337z M212.022,85.063c0,0.539,0.121,0.96,0.365,1.26
			c0.243,0.299,0.597,0.448,1.059,0.448c0.268,0,0.493-0.064,0.678-0.195c0.184-0.13,0.332-0.29,0.444-0.481l0.454,0.304
			c-0.154,0.267-0.354,0.488-0.6,0.663c-0.247,0.176-0.579,0.262-0.994,0.262c-0.32,0-0.607-0.047-0.863-0.146
			c-0.256-0.098-0.474-0.239-0.654-0.428c-0.182-0.186-0.32-0.419-0.418-0.699c-0.099-0.278-0.148-0.602-0.148-0.969
			c0-0.339,0.047-0.644,0.139-0.913s0.22-0.502,0.383-0.694c0.163-0.193,0.362-0.342,0.598-0.445
			c0.234-0.104,0.493-0.157,0.779-0.157c0.314,0,0.59,0.055,0.822,0.162c0.234,0.106,0.43,0.256,0.584,0.449s0.27,0.424,0.347,0.694
			c0.077,0.27,0.116,0.565,0.116,0.887H212.022" />
         <path id="path28_7_"
            fill="#FFFFFF"
            d="M216.44,87.227v-4.194l0.615-0.107l0.063,0.428c0.113-0.119,0.258-0.229,0.436-0.329
			c0.179-0.103,0.359-0.153,0.544-0.153c0.13,0,0.251,0.01,0.36,0.028c0.111,0.016,0.193,0.035,0.254,0.053l-0.125,0.633
			c-0.16-0.065-0.347-0.1-0.561-0.1c-0.172,0-0.337,0.049-0.494,0.144c-0.158,0.095-0.293,0.193-0.404,0.294v3.305H216.44" />
         <path id="path30_7_"
            fill="#FFFFFF"
            d="M220.924,83.539v2.715c0,0.209,0.041,0.346,0.121,0.415
			c0.08,0.068,0.182,0.102,0.307,0.102c0.111,0,0.219-0.024,0.32-0.07c0.102-0.048,0.193-0.104,0.275-0.169l0.268,0.463
			c-0.137,0.101-0.271,0.182-0.404,0.24c-0.135,0.06-0.322,0.088-0.566,0.088c-0.32,0-0.566-0.081-0.737-0.244
			c-0.173-0.164-0.258-0.414-0.258-0.752v-2.787h-0.73v-0.552h0.73v-1.104l0.683-0.126v1.23h1.158l-0.098,0.552H220.924" />
         <path id="path32_7_"
            fill="#FFFFFF"
            d="M226.09,87.227l-1.596-4.248h0.74l1.264,3.464l1.273-3.464h0.693l-1.592,4.248H226.09" />
         <path id="path34_7_"
            fill="#FFFFFF"
            d="M232.451,85.093c0-0.206-0.027-0.412-0.08-0.613c-0.055-0.2-0.137-0.38-0.246-0.537
			c-0.111-0.157-0.246-0.282-0.41-0.377c-0.162-0.095-0.354-0.143-0.572-0.143c-0.223,0-0.412,0.048-0.576,0.143
			s-0.297,0.22-0.404,0.377s-0.188,0.335-0.242,0.533c-0.053,0.198-0.08,0.401-0.08,0.608c0,0.213,0.027,0.421,0.08,0.622
			c0.055,0.201,0.137,0.38,0.246,0.537s0.246,0.284,0.41,0.382c0.162,0.097,0.352,0.146,0.566,0.146c0.219,0,0.41-0.049,0.572-0.146
			c0.164-0.098,0.299-0.225,0.41-0.382c0.109-0.157,0.191-0.336,0.246-0.537C232.424,85.505,232.451,85.299,232.451,85.093z
			 M233.117,85.097c0,0.28-0.041,0.553-0.123,0.82c-0.084,0.266-0.207,0.503-0.371,0.712c-0.162,0.207-0.367,0.375-0.617,0.503
			s-0.537,0.19-0.863,0.19c-0.328,0-0.615-0.063-0.859-0.19c-0.248-0.128-0.455-0.297-0.621-0.507
			c-0.166-0.211-0.289-0.452-0.373-0.723c-0.084-0.27-0.125-0.544-0.125-0.822c0-0.279,0.041-0.551,0.119-0.815
			c0.082-0.264,0.205-0.499,0.371-0.707s0.371-0.375,0.617-0.499c0.248-0.125,0.537-0.188,0.871-0.188
			c0.326,0,0.613,0.064,0.863,0.192c0.25,0.127,0.455,0.295,0.617,0.503c0.164,0.208,0.287,0.446,0.371,0.712
			C233.076,84.545,233.117,84.818,233.117,85.097" />
         <path id="path36_7_"
            fill="#FFFFFF"
            d="M235.115,82.925l0.055,0.392c0.172-0.13,0.375-0.237,0.609-0.321
			c0.234-0.082,0.48-0.125,0.736-0.125c0.58,0,0.992,0.146,1.23,0.434c0.242,0.287,0.363,0.714,0.363,1.277v2.646h-0.688v-2.664
			c0-0.355-0.08-0.635-0.24-0.837c-0.16-0.201-0.42-0.303-0.783-0.303c-0.225,0-0.447,0.05-0.662,0.146
			c-0.217,0.099-0.402,0.207-0.557,0.326v3.331h-0.688v-4.194L235.115,82.925" />
      </g>
   </g>
   <g id="Abstände"
      display="none">
      <g display="inline">
         <rect x="0.001"
            fill="#C3008D"
            width="22.677"
            height="146.438" />
         <rect x="254.835"
            fill="#C3008D"
            width="22.677"
            height="146.438" />
         <rect x="0.101"
            y="118.092"
            fill="#C3008D"
            width="277.512"
            height="28.347" />
         <rect x="0.101"
            y="-0.009"
            fill="#C3008D"
            width="277.512"
            height="28.347" />
      </g>
   </g>
</svg>
